<svg width="351" height="117" viewBox="0 0 351 117" fill="none" xmlns="http://www.w3.org/2000/svg">
<path d="M127.39 21.73C128.174 22.1021 128.83 22.6994 129.273 23.4456C129.717 24.1919 129.928 25.0533 129.88 25.92C129.909 26.4468 129.82 26.9734 129.619 27.4613C129.419 27.9492 129.111 28.3861 128.72 28.74C127.875 29.4269 126.808 29.7824 125.72 29.74C124.973 29.7668 124.231 29.6088 123.56 29.28C123.763 28.4965 123.861 27.6894 123.85 26.88C123.904 25.9607 123.651 25.0495 123.13 24.29C122.846 23.9662 122.49 23.7135 122.09 23.552C121.691 23.3905 121.259 23.3248 120.83 23.36C120.035 23.3187 119.255 23.5836 118.65 24.1C118.372 24.3754 118.156 24.707 118.016 25.0726C117.876 25.4381 117.816 25.8293 117.84 26.22C117.826 27.1108 118.088 27.9842 118.59 28.72C119.082 29.4581 119.705 30.0989 120.43 30.61C121.16 31.14 122.16 31.77 123.43 32.52C124.661 33.24 125.852 34.0244 127 34.87C127.949 35.5786 128.75 36.4651 129.36 37.48C130.044 38.6166 130.391 39.924 130.36 41.25C130.432 42.4433 130.204 43.6356 129.698 44.7184C129.191 45.8012 128.422 46.7402 127.46 47.45C125.231 48.9266 122.591 49.6583 119.92 49.54C117.678 49.6098 115.452 49.14 113.43 48.17C112.601 47.7762 111.909 47.1446 111.44 46.3556C110.972 45.5667 110.749 44.6561 110.8 43.74C110.779 43.1927 110.875 42.6472 111.082 42.1402C111.289 41.6331 111.602 41.1761 112 40.8C112.402 40.4253 112.874 40.1335 113.389 39.9413C113.903 39.7492 114.451 39.6603 115 39.68C115.747 39.6437 116.49 39.7986 117.16 40.13C116.981 40.8501 116.884 41.5881 116.87 42.33C116.87 45.2033 118.057 46.64 120.43 46.64C121.415 46.6825 122.38 46.3502 123.13 45.71C123.469 45.389 123.733 44.9984 123.906 44.565C124.079 44.1316 124.155 43.6658 124.13 43.2C124.143 42.3077 123.885 41.4325 123.39 40.69C122.885 39.9501 122.252 39.3066 121.52 38.79C120.78 38.25 119.78 37.6 118.52 36.86C117.03 35.97 115.82 35.19 114.89 34.5C113.944 33.7887 113.143 32.9027 112.53 31.89C111.854 30.765 111.507 29.4725 111.53 28.16C111.519 26.656 112.012 25.1916 112.93 24C113.846 22.815 115.071 21.9051 116.47 21.37C118.007 20.7626 119.648 20.4603 121.3 20.48C123.401 20.4055 125.489 20.834 127.39 21.73Z" fill="white"/>
<path d="M150.13 29.61C151.803 31.57 152.637 34.29 152.63 37.77C152.63 41.3567 151.787 44.2167 150.1 46.35C148.413 48.4833 145.927 49.5467 142.64 49.54C139.38 49.54 136.9 48.54 135.18 46.47C133.46 44.4 132.62 41.67 132.62 38.18C132.62 34.69 133.46 31.84 135.16 29.77C136.86 27.7 139.36 26.66 142.64 26.66C145.92 26.66 148.45 27.64 150.13 29.61ZM145.42 44.53C145.868 42.3836 146.063 40.1919 146 38C146.046 35.874 145.824 33.7506 145.34 31.68C144.9 30.01 143.99 29.17 142.6 29.17C141.21 29.17 140.31 30.01 139.87 31.7C139.387 33.7641 139.166 35.8807 139.21 38C139.159 40.2001 139.367 42.3986 139.83 44.55C140.24 46.23 141.17 47.07 142.6 47.07C144.03 47.07 145 46.21 145.42 44.53Z" fill="white"/>
<path d="M163 31.91C162.698 33.4713 162.56 35.06 162.59 36.65V48.65H156.2V27.49L161.38 26.99L161.67 30.72C162.054 29.5189 162.806 28.4692 163.82 27.72C164.847 26.9911 166.081 26.6124 167.34 26.64C168.024 26.6048 168.709 26.707 169.353 26.9406C169.997 27.1741 170.587 27.5344 171.09 28C171.564 28.4815 171.933 29.0565 172.172 29.6884C172.411 30.3204 172.516 30.9952 172.48 31.67C172.542 32.2104 172.482 32.7578 172.303 33.2715C172.124 33.7852 171.831 34.2518 171.446 34.6364C171.062 35.0211 170.595 35.3138 170.082 35.4928C169.568 35.6718 169.02 35.7323 168.48 35.67C168.12 35.6648 167.761 35.6212 167.41 35.54C167.087 35.4961 166.776 35.3836 166.5 35.21C166.704 34.512 166.802 33.7872 166.79 33.06C166.79 31.06 166.14 30.06 164.84 30.06C163.86 30.06 163.23 30.68 163 31.91Z" fill="white"/>
<path d="M172.4 29.36V28.07C173.804 27.527 175.146 26.8329 176.4 26C177.64 25.213 178.77 24.2647 179.76 23.18H181.54V27.49H185.35V29.36H181.5V44.11C181.453 44.8087 181.617 45.5054 181.97 46.11C182.158 46.3542 182.393 46.5586 182.661 46.7113C182.929 46.8641 183.224 46.9622 183.53 47C183.238 47.7181 182.694 48.3048 182 48.65C181.237 49.0553 180.384 49.2616 179.52 49.25C178.926 49.2924 178.33 49.2112 177.768 49.0115C177.207 48.8119 176.694 48.4981 176.26 48.09C175.474 47.1543 175.083 45.9491 175.17 44.73V29.36H172.4Z" fill="white"/>
<path d="M204 44.19C204.025 45.2668 203.622 46.3096 202.88 47.09C202.086 47.9282 201.096 48.5569 200 48.92C198.837 49.3301 197.613 49.5398 196.38 49.54C193.047 49.54 190.537 48.54 188.85 46.54C187.15 44.54 186.3 41.76 186.3 38.26C186.3 34.76 187.22 31.8 189.06 29.76C190.9 27.72 193.56 26.69 197.06 26.69C199.026 26.61 200.967 27.1486 202.61 28.23C203.332 28.7304 203.914 29.4079 204.299 30.1977C204.684 30.9874 204.86 31.8628 204.81 32.74C204.81 35.2 203.94 36.9 202.2 37.84C199.973 38.8831 197.526 39.3671 195.07 39.25C194.335 39.2621 193.6 39.222 192.87 39.13C192.868 40.7355 193.255 42.3176 194 43.74C194.36 44.3092 194.869 44.7687 195.472 45.0684C196.075 45.3682 196.749 45.4967 197.42 45.44C198.559 45.4497 199.681 45.1563 200.67 44.59C201.652 44.0269 202.439 43.1797 202.93 42.16C203.295 42.3477 203.594 42.6431 203.785 43.0063C203.977 43.3695 204.052 43.7827 204 44.19ZM193.68 31.53C193.137 33.3675 192.864 35.2741 192.87 37.19H193.7C195.101 37.3181 196.506 36.9845 197.7 36.24C198.179 35.8215 198.552 35.2947 198.786 34.7034C199.021 34.1121 199.112 33.4733 199.05 32.84C199.081 31.9138 198.856 30.997 198.4 30.19C198.211 29.8498 197.932 29.5687 197.593 29.378C197.254 29.1873 196.869 29.0946 196.48 29.11C195.11 29.11 194.19 29.92 193.68 31.53Z" fill="white"/>
<path d="M217.74 48.88C216.678 49.3323 215.534 49.5571 214.38 49.54C212.452 49.6006 210.559 49.0164 209 47.88C208.287 47.3503 207.715 46.6541 207.333 45.8522C206.951 45.0504 206.772 44.1673 206.81 43.28C206.739 42.1228 207.054 40.9747 207.706 40.0157C208.357 39.0566 209.308 38.3407 210.41 37.98C213.325 36.9568 216.402 36.4789 219.49 36.57V33C219.547 31.9715 219.362 30.9439 218.95 30C218.732 29.6478 218.417 29.366 218.043 29.1886C217.668 29.0112 217.251 28.9457 216.84 29C216.412 28.974 215.984 29.04 215.584 29.1935C215.183 29.347 214.821 29.5845 214.52 29.89C213.937 30.5609 213.639 31.4328 213.69 32.32C213.715 32.9927 213.799 33.6619 213.94 34.32C213.672 34.4839 213.372 34.5896 213.06 34.63C212.707 34.6957 212.349 34.7292 211.99 34.73C210.988 34.7692 209.999 34.4853 209.17 33.92C208.781 33.6555 208.469 33.2938 208.264 32.871C208.058 32.4482 207.967 31.9789 208 31.51C208 29.9367 208.89 28.7367 210.67 27.91C212.69 27.031 214.878 26.6044 217.08 26.66C220.06 26.66 222.257 27.2567 223.67 28.45C225.07 29.63 225.78 31.64 225.78 34.45V44.45C225.772 45.1277 225.87 45.8026 226.07 46.45C226.267 47.0402 226.611 47.5703 227.07 47.99C226.719 48.41 226.253 48.7192 225.73 48.88C225.149 49.0853 224.537 49.1902 223.92 49.19C223.02 49.223 222.129 49.0011 221.35 48.55C220.668 48.1309 220.168 47.4705 219.95 46.7C219.493 47.6643 218.71 48.4363 217.74 48.88ZM218.74 45.35C219.279 44.3607 219.544 43.2459 219.51 42.12V38.64C215.417 38.64 213.37 40.1333 213.37 43.12C213.332 44.0387 213.603 44.9436 214.14 45.69C214.403 46.0226 214.741 46.2871 215.128 46.4612C215.514 46.6353 215.937 46.7137 216.36 46.69C216.838 46.7095 217.312 46.5943 217.727 46.3573C218.143 46.1203 218.483 45.7713 218.71 45.35H218.74Z" fill="white"/>
<path d="M249.11 46.51C249.307 47.1002 249.651 47.6303 250.11 48.05C249.759 48.47 249.293 48.7792 248.77 48.94C248.189 49.1453 247.577 49.2502 246.96 49.25C246.063 49.2833 245.176 49.0613 244.4 48.61C243.719 48.1894 243.22 47.5296 243 46.76C242.487 47.6807 241.696 48.4157 240.74 48.86C239.702 49.3238 238.576 49.5558 237.44 49.54C236.215 49.6289 234.99 49.3758 233.9 48.809C232.811 48.2422 231.9 47.384 231.27 46.33C229.894 43.7758 229.227 40.8993 229.34 38C229.34 34.43 230.2 31.66 231.91 29.67C233.62 27.68 236.19 26.67 239.62 26.67C240.584 26.6494 241.546 26.7604 242.48 27V19.62L248.82 18.96V44.48C248.808 45.1678 248.906 45.853 249.11 46.51ZM239.5 29.15C238.815 29.1276 238.145 29.3575 237.618 29.7962C237.09 30.2349 236.743 30.8519 236.64 31.53C236.14 33.5709 235.915 35.6694 235.97 37.77C235.924 39.8845 236.156 41.9959 236.66 44.05C237.11 45.72 238.04 46.56 239.45 46.56C239.918 46.5803 240.381 46.4657 240.785 46.2299C241.19 45.9941 241.518 45.647 241.73 45.23C242.257 44.2369 242.515 43.1236 242.48 42V30.14C241.616 29.5042 240.573 29.1577 239.5 29.15Z" fill="white"/>
<path d="M270.22 29.61C271.9 31.61 272.73 34.29 272.73 37.77C272.73 41.25 271.89 44.22 270.2 46.35C268.51 48.48 266.03 49.54 262.74 49.54C259.45 49.54 257 48.54 255.28 46.47C253.56 44.4 252.71 41.67 252.71 38.18C252.71 34.69 253.56 31.84 255.26 29.77C256.96 27.7 259.46 26.66 262.74 26.66C266.02 26.66 268.55 27.64 270.22 29.61ZM265.52 44.53C265.983 42.3786 266.191 40.1801 266.14 37.98C266.186 35.854 265.964 33.7306 265.48 31.66C265.04 29.99 264.13 29.15 262.74 29.15C261.35 29.15 260.45 29.99 260.01 31.68C259.527 33.7441 259.306 35.8607 259.35 37.98C259.299 40.1801 259.507 42.3786 259.97 44.53C260.38 46.21 261.31 47.05 262.74 47.05C264.17 47.05 265.11 46.21 265.52 44.53Z" fill="white"/>
<path d="M283.05 31.91C282.743 33.4706 282.605 35.0598 282.64 36.65V48.65H276.3V27.49L281.48 26.99L281.77 30.72C282.154 29.5189 282.906 28.4692 283.92 27.72C284.947 26.9911 286.181 26.6124 287.44 26.64C288.124 26.6048 288.809 26.707 289.453 26.9406C290.097 27.1741 290.687 27.5344 291.19 28C291.664 28.4815 292.033 29.0565 292.272 29.6884C292.511 30.3204 292.616 30.9952 292.58 31.67C292.642 32.2104 292.582 32.7578 292.403 33.2715C292.224 33.7852 291.931 34.2518 291.546 34.6364C291.162 35.0211 290.695 35.3138 290.182 35.4928C289.668 35.6718 289.12 35.7323 288.58 35.67C288.22 35.6648 287.861 35.6212 287.51 35.54C287.187 35.4961 286.876 35.3836 286.6 35.21C286.804 34.512 286.902 33.7872 286.89 33.06C286.89 31.06 286.223 30.06 284.89 30.06C284 30.06 283.33 30.68 283.05 31.91Z" fill="white"/>
<path d="M320.56 46.51C320.757 47.1002 321.101 47.6303 321.56 48.05C321.207 48.4725 320.737 48.782 320.21 48.94C319.632 49.1461 319.023 49.251 318.41 49.25C317.51 49.283 316.619 49.0611 315.84 48.61C315.158 48.1884 314.656 47.5295 314.43 46.76C313.922 47.6851 313.13 48.4216 312.17 48.86C311.136 49.3226 310.013 49.5547 308.88 49.54C307.654 49.6284 306.427 49.3753 305.336 48.8086C304.245 48.242 303.333 47.384 302.7 46.33C301.331 43.7669 300.674 40.8832 300.8 37.98C300.8 34.41 301.65 31.64 303.37 29.65C305.09 27.66 307.65 26.65 311.08 26.65C312.044 26.63 313.006 26.741 313.94 26.98V19.62L320.28 18.96V44.48C320.26 45.1675 320.355 45.8535 320.56 46.51ZM310.94 29.15C310.255 29.1298 309.586 29.3605 309.06 29.7988C308.533 30.2371 308.185 30.8528 308.08 31.53C307.589 33.5723 307.367 35.6701 307.42 37.77C307.376 39.8838 307.605 41.9945 308.1 44.05C308.56 45.72 309.49 46.56 310.9 46.56C311.367 46.5779 311.83 46.4622 312.233 46.2267C312.637 45.9911 312.966 45.6454 313.18 45.23C313.707 44.2369 313.965 43.1236 313.93 42V30.14C313.062 29.504 312.016 29.1576 310.94 29.15Z" fill="white"/>
<path d="M341.86 44.19C341.88 45.2658 341.478 46.3067 340.74 47.09C339.943 47.925 338.954 48.5532 337.86 48.92C336.693 49.3292 335.466 49.5388 334.23 49.54C330.897 49.54 328.39 48.54 326.71 46.54C325.01 44.54 324.16 41.76 324.16 38.26C324.16 34.76 325.08 31.8 326.92 29.76C328.76 27.72 331.41 26.69 334.92 26.69C336.889 26.6112 338.833 27.1496 340.48 28.23C341.2 28.7322 341.779 29.4104 342.162 30.1999C342.546 30.9893 342.72 31.8638 342.67 32.74C342.67 35.2 341.8 36.9 340.06 37.84C337.837 38.8831 335.393 39.3671 332.94 39.25C332.205 39.2624 331.47 39.2223 330.74 39.13C330.731 40.7471 331.123 42.3412 331.88 43.77C332.24 44.3392 332.749 44.7986 333.352 45.0984C333.955 45.3981 334.629 45.5267 335.3 45.47C336.44 45.4797 337.561 45.1863 338.55 44.62C339.527 44.0516 340.314 43.2059 340.81 42.19C341.166 42.3787 341.457 42.6707 341.644 43.0276C341.832 43.3845 341.907 43.7896 341.86 44.19ZM331.52 31.53C330.977 33.3675 330.704 35.2741 330.71 37.19H331.54C332.941 37.3181 334.346 36.9845 335.54 36.24C336.017 35.8205 336.388 35.2932 336.621 34.702C336.854 34.1107 336.943 33.4724 336.88 32.84C336.914 31.9147 336.692 30.998 336.24 30.19C336.051 29.8483 335.77 29.5661 335.429 29.3753C335.088 29.1845 334.7 29.0927 334.31 29.11C333 29.11 332 29.92 331.52 31.53Z" fill="white"/>
<path d="M124.34 65.56L130.72 90.49H124.34L122.9 84.33H115.9L114.5 90.49H110L116.87 65.56H124.34ZM116.63 81.35H122.22L119.39 69.26L116.63 81.35Z" fill="white"/>
<path d="M132.88 71.23L137.6 70.77L137.86 74.17C138.86 71.7 140.79 70.47 143.79 70.47C145.012 70.4124 146.227 70.6927 147.3 71.28C148.221 71.8465 148.925 72.7057 149.3 73.72C149.768 72.6741 150.55 71.7996 151.537 71.2174C152.524 70.6352 153.668 70.374 154.81 70.47C156.98 70.47 158.51 71.06 159.42 72.25C160.439 73.8286 160.916 75.696 160.78 77.57V86.71C160.767 87.3373 160.858 87.9625 161.05 88.56C161.223 89.0969 161.534 89.5794 161.95 89.96C161.617 90.3455 161.179 90.6268 160.69 90.77C160.149 90.9567 159.582 91.0546 159.01 91.06C157.917 91.1368 156.838 90.7772 156.01 90.06C155.648 89.6542 155.373 89.1788 155.201 88.663C155.029 88.1472 154.964 87.6018 155.01 87.06V77.87C155.052 76.7354 154.913 75.6013 154.6 74.51C154.463 74.1305 154.202 73.8085 153.859 73.5961C153.516 73.3837 153.111 73.2935 152.71 73.34C152.184 73.3131 151.666 73.4731 151.247 73.7915C150.828 74.1099 150.535 74.5664 150.42 75.08C150.018 76.5315 149.833 78.0344 149.87 79.54V90.49H144.1V77.87C144.146 76.7279 144.004 75.586 143.68 74.49C143.526 74.1001 143.245 73.774 142.881 73.565C142.518 73.3561 142.094 73.2768 141.68 73.34C141.14 73.2985 140.602 73.4451 140.157 73.755C139.712 74.0648 139.388 74.5187 139.24 75.04C138.802 76.4984 138.603 78.018 138.65 79.54V90.49H132.88V71.23Z" fill="white"/>
<path d="M170.44 63.41C170.745 63.6436 170.989 63.9475 171.151 64.2958C171.313 64.644 171.388 65.0263 171.37 65.41C171.384 65.8005 171.3 66.1883 171.126 66.5378C170.951 66.8873 170.691 67.1872 170.37 67.41C169.622 67.9057 168.736 68.1509 167.84 68.11C166.963 68.15 166.096 67.9044 165.37 67.41C165.045 67.1913 164.782 66.8922 164.607 66.5417C164.431 66.1912 164.35 65.8013 164.37 65.41C164.353 65.012 164.435 64.616 164.61 64.258C164.784 63.9 165.046 63.5913 165.37 63.36C166.114 62.8373 167.011 62.577 167.92 62.62C168.826 62.5839 169.717 62.8631 170.44 63.41ZM170.69 86.71C170.674 87.3368 170.762 87.9618 170.95 88.56C171.131 89.0956 171.444 89.5771 171.86 89.96C171.524 90.3476 171.083 90.6291 170.59 90.77C170.049 90.9567 169.482 91.0546 168.91 91.06C168.369 91.0997 167.825 91.0317 167.31 90.8601C166.795 90.6884 166.319 90.4165 165.91 90.06C165.548 89.6542 165.273 89.1788 165.101 88.663C164.929 88.1472 164.864 87.6018 164.91 87.06V71.23H170.69V86.71Z" fill="white"/>
<path d="M185.27 94.74C185.775 93.9016 186.077 92.9562 186.15 91.98C186.282 90.5172 186.339 89.0486 186.32 87.58V86.41C185.795 87.1343 185.068 87.6874 184.23 88C183.314 88.3363 182.345 88.5024 181.37 88.49C180.341 88.5691 179.309 88.3912 178.367 87.9722C177.424 87.5533 176.6 86.9064 175.97 86.09C174.722 84.1677 174.116 81.8987 174.24 79.61C174.24 76.67 175 74.41 176.54 72.85C178.08 71.29 180.3 70.51 183.23 70.51C184.663 70.49 186.086 70.7481 187.42 71.27L191.84 70.66V86.66C191.884 88.8037 191.601 90.9417 191 93C190.551 94.5473 189.561 95.8816 188.21 96.76C186.526 97.6827 184.617 98.1124 182.7 98C180.937 98.0345 179.19 97.6543 177.6 96.89C176.931 96.6164 176.361 96.1474 175.963 95.5444C175.565 94.9414 175.358 94.2323 175.37 93.51C175.342 93.0964 175.419 92.6824 175.594 92.3065C175.769 91.9307 176.036 91.6051 176.37 91.36C177.135 90.8519 178.042 90.5998 178.96 90.64C179.576 90.5709 180.197 90.7043 180.73 91.02C180.601 91.6018 180.528 92.1944 180.51 92.79C180.468 93.5719 180.678 94.3468 181.11 95C181.335 95.2787 181.625 95.4982 181.955 95.6394C182.284 95.7805 182.643 95.8391 183 95.81C183.439 95.8465 183.88 95.7669 184.278 95.579C184.677 95.3912 185.019 95.1018 185.27 94.74ZM183.34 72.74C182.774 72.7059 182.213 72.8727 181.758 73.2111C181.302 73.5495 180.981 74.0378 180.85 74.59C180.399 76.135 180.193 77.7412 180.24 79.35C180.196 80.9094 180.402 82.4657 180.85 83.96C180.984 84.4996 181.302 84.9755 181.749 85.3059C182.196 85.6362 182.745 85.8004 183.3 85.77C183.732 85.7917 184.161 85.6869 184.534 85.4684C184.907 85.2499 185.208 84.9272 185.4 84.54C185.862 83.6089 186.088 82.5789 186.06 81.54V73.61C185.27 73.0356 184.317 72.7306 183.34 72.74Z" fill="white"/>
<path d="M211.2 73.15C212.72 74.9367 213.48 77.4167 213.48 80.59C213.627 83.3826 212.815 86.1416 211.18 88.41C210.355 89.3957 209.31 90.173 208.128 90.6786C206.947 91.1842 205.662 91.404 204.38 91.32C203.109 91.4023 201.836 91.1938 200.658 90.7103C199.48 90.2269 198.427 89.4812 197.58 88.53C195.931 86.377 195.102 83.7081 195.24 81C195.09 78.2504 195.911 75.5355 197.56 73.33C199.113 71.4433 201.387 70.5 204.38 70.5C207.373 70.5 209.647 71.3833 211.2 73.15ZM206.91 86.75C207.336 84.7794 207.527 82.7655 207.48 80.75C207.518 78.812 207.313 76.8769 206.87 74.99C206.47 73.47 205.64 72.71 204.38 72.71C203.12 72.71 202.29 73.48 201.89 75.01C201.443 76.8896 201.238 78.8185 201.28 80.75C201.233 82.7655 201.424 84.7794 201.85 86.75C202.23 88.29 203.07 89.05 204.38 89.05C205.69 89.05 206.53 88.29 206.91 86.75Z" fill="white"/>
<path d="M237 66C237.712 66.3403 238.307 66.8836 238.711 67.5616C239.115 68.2396 239.31 69.0218 239.27 69.81C239.299 70.2907 239.219 70.7718 239.036 71.217C238.852 71.6622 238.57 72.0599 238.21 72.38C237.435 73.0087 236.457 73.3323 235.46 73.29C234.769 73.3172 234.082 73.1729 233.46 72.87C233.651 72.156 233.742 71.419 233.73 70.68C233.78 69.8417 233.547 69.0109 233.07 68.32C232.812 68.023 232.487 67.7912 232.122 67.6435C231.757 67.4958 231.362 67.4363 230.97 67.47C230.24 67.429 229.523 67.6728 228.97 68.15C228.713 68.3984 228.514 68.6998 228.387 69.0332C228.259 69.3665 228.205 69.7238 228.23 70.08C228.22 70.8914 228.457 71.6866 228.91 72.36C229.362 73.03 229.931 73.6127 230.59 74.08C231.26 74.56 232.17 75.14 233.33 75.82C234.468 76.4763 235.57 77.194 236.63 77.97C237.494 78.6195 238.227 79.4271 238.79 80.35C239.401 81.3911 239.706 82.5834 239.67 83.79C239.736 84.8758 239.529 85.9609 239.068 86.9461C238.607 87.9314 237.906 88.7853 237.03 89.43C235.001 90.7804 232.595 91.4494 230.16 91.34C228.115 91.4096 226.083 90.9806 224.24 90.09C223.492 89.7326 222.866 89.1624 222.441 88.4508C222.016 87.7392 221.81 86.918 221.85 86.09C221.829 85.5931 221.913 85.0973 222.098 84.6353C222.282 84.1734 222.562 83.7558 222.92 83.41C223.666 82.7283 224.651 82.3689 225.66 82.41C226.352 82.3707 227.042 82.5156 227.66 82.83C227.496 83.4847 227.406 84.1554 227.39 84.83C227.39 87.45 228.473 88.76 230.64 88.76C231.535 88.7968 232.41 88.493 233.09 87.91C233.406 87.6205 233.654 87.2656 233.818 86.87C233.982 86.4745 234.058 86.0479 234.04 85.62C234.05 84.8086 233.813 84.0134 233.36 83.34C232.902 82.6632 232.326 82.0739 231.66 81.6C230.98 81.11 230.07 80.52 228.94 79.84C227.8 79.1812 226.695 78.4635 225.63 77.69C224.769 77.0403 224.039 76.2326 223.48 75.31C222.87 74.2828 222.561 73.1044 222.59 71.91C222.531 70.5077 222.954 69.1275 223.79 68C224.625 66.9181 225.743 66.0877 227.02 65.6C228.421 65.0475 229.914 64.7691 231.42 64.78C233.351 64.7316 235.265 65.1502 237 66Z" fill="white"/>
<path d="M257.86 86.45C257.884 87.4268 257.525 88.3744 256.86 89.09C256.138 89.8517 255.237 90.4221 254.24 90.75C253.178 91.1291 252.058 91.3219 250.93 91.32C247.91 91.32 245.627 90.4 244.08 88.56C242.413 86.4046 241.579 83.7206 241.73 81C241.73 77.6667 242.57 75.0867 244.25 73.26C245.93 71.4333 248.353 70.5 251.52 70.46C253.311 70.3918 255.079 70.881 256.58 71.86C257.237 72.3192 257.766 72.9388 258.116 73.6599C258.466 74.381 258.626 75.1797 258.58 75.98C258.58 78.22 257.787 79.7667 256.2 80.62C254.171 81.5743 251.939 82.0172 249.7 81.91C249.031 81.922 248.363 81.8818 247.7 81.79C247.683 83.2605 248.026 84.7129 248.7 86.02C249.026 86.5412 249.49 86.962 250.041 87.2356C250.592 87.5091 251.208 87.6249 251.82 87.57C252.871 87.587 253.907 87.3211 254.82 86.8C255.711 86.2844 256.428 85.515 256.88 84.59C257.215 84.7617 257.488 85.0324 257.664 85.3652C257.839 85.6981 257.908 86.0768 257.86 86.45ZM248.44 74.91C247.944 76.5814 247.694 78.3164 247.7 80.06H248.46C249.722 80.1712 250.985 79.8694 252.06 79.2C252.499 78.8203 252.84 78.3402 253.054 77.8006C253.269 77.2609 253.349 76.6775 253.29 76.1C253.32 75.2557 253.119 74.4192 252.71 73.68C252.538 73.3667 252.282 73.1073 251.972 72.9307C251.661 72.7542 251.307 72.6674 250.95 72.68C249.74 72.7 248.9 73.44 248.44 74.91Z" fill="white"/>
<path d="M266.51 80.71C266.44 82.4196 266.737 84.1244 267.38 85.71C267.672 86.3187 268.145 86.8228 268.733 87.1537C269.322 87.4847 269.998 87.6265 270.67 87.56C271.637 87.5891 272.586 87.2973 273.37 86.73C274.136 86.1398 274.704 85.3307 275 84.41C275.408 84.5346 275.761 84.7959 276 85.15C276.233 85.5022 276.352 85.9178 276.34 86.34C276.364 87.3242 276.03 88.2837 275.4 89.04C274.737 89.8052 273.89 90.39 272.94 90.74C271.916 91.1328 270.827 91.3296 269.73 91.32C266.73 91.32 264.42 90.4 262.88 88.56C261.217 86.4032 260.386 83.7193 260.54 81C260.384 78.2119 261.26 75.4639 263 73.28C264.63 71.41 267 70.47 270.18 70.47C271.827 70.4077 273.462 70.7802 274.92 71.55C275.525 71.891 276.021 72.3955 276.352 73.0058C276.682 73.6161 276.834 74.3073 276.79 75C276.819 75.4151 276.742 75.8308 276.567 76.2084C276.393 76.586 276.125 76.9134 275.79 77.16C275.014 77.6593 274.102 77.9072 273.18 77.87C272.845 77.8703 272.51 77.8402 272.18 77.78C271.904 77.7405 271.638 77.6452 271.4 77.5C271.53 76.9149 271.607 76.3191 271.63 75.72C271.63 73.72 270.95 72.72 269.63 72.72C267.54 72.74 266.51 75.39 266.51 80.71Z" fill="white"/>
<path d="M285.66 75.25C285.38 76.6724 285.253 78.1206 285.28 79.57V90.49H279.5V71.23L284.23 70.77L284.49 74.17C284.855 73.0761 285.555 72.1246 286.49 71.45C287.429 70.7809 288.557 70.4304 289.71 70.45C290.332 70.4179 290.953 70.5102 291.539 70.7214C292.124 70.9326 292.662 71.2585 293.12 71.68C293.543 72.1187 293.87 72.6401 294.082 73.2115C294.294 73.7828 294.385 74.3917 294.35 75C294.382 75.4931 294.316 75.9878 294.154 76.4549C293.993 76.9219 293.74 77.3521 293.41 77.72C293.048 78.0504 292.623 78.3047 292.161 78.4679C291.699 78.6311 291.209 78.6998 290.72 78.67C290.383 78.6645 290.048 78.6243 289.72 78.55C289.425 78.5108 289.142 78.4085 288.89 78.25C289.082 77.6013 289.17 76.9262 289.15 76.25C289.15 74.41 288.56 73.49 287.38 73.49C286.46 73.5433 285.887 74.13 285.66 75.25Z" fill="white"/>
<path d="M311.35 86.45C311.374 87.4268 311.015 88.3744 310.35 89.09C309.624 89.8518 308.72 90.4221 307.72 90.75C306.661 91.1281 305.545 91.3209 304.42 91.32C301.42 91.32 299.11 90.4 297.56 88.56C295.896 86.4036 295.065 83.7194 295.22 81C295.22 77.7 296.05 75.12 297.73 73.26C299.41 71.4 301.83 70.46 305 70.46C306.791 70.3905 308.559 70.8798 310.06 71.86C310.718 72.3178 311.248 72.9372 311.598 73.6586C311.949 74.3801 312.108 75.1794 312.06 75.98C312.06 78.22 311.267 79.7667 309.68 80.62C307.655 81.5746 305.426 82.0176 303.19 81.91C302.521 81.9226 301.852 81.8825 301.19 81.79C301.173 83.2605 301.516 84.7129 302.19 86.02C302.516 86.5412 302.98 86.962 303.531 87.2355C304.082 87.5091 304.698 87.6249 305.31 87.57C306.361 87.5841 307.396 87.3183 308.31 86.8C309.198 86.2838 309.912 85.5143 310.36 84.59C310.698 84.7591 310.974 85.0289 311.152 85.3622C311.329 85.6954 311.398 86.0756 311.35 86.45ZM301.92 74.91C301.427 76.582 301.181 78.3169 301.19 80.06H301.94C303.205 80.1712 304.471 79.8695 305.55 79.2C305.989 78.8203 306.33 78.3402 306.544 77.8005C306.759 77.2609 306.839 76.6775 306.78 76.1C306.807 75.2547 306.603 74.4182 306.19 73.68C306.018 73.3667 305.762 73.1073 305.452 72.9307C305.141 72.7542 304.787 72.6674 304.43 72.68C303.23 72.7 302.39 73.44 301.92 74.91Z" fill="white"/>
<path d="M313.08 72.93V71.76C314.366 71.2601 315.596 70.6266 316.75 69.87C317.875 69.1469 318.903 68.2833 319.81 67.3H321.43V71.23H324.91V72.93H321.39V86.37C321.353 87.0005 321.506 87.6277 321.83 88.17C322.176 88.6142 322.682 88.905 323.24 88.98C322.98 89.6434 322.486 90.188 321.85 90.51C321.15 90.8778 320.37 91.0668 319.58 91.06C319.033 91.1047 318.484 91.0334 317.967 90.8507C317.45 90.6681 316.977 90.3781 316.58 90C315.862 89.1485 315.503 88.0511 315.58 86.94V72.94L313.08 72.93Z" fill="white"/>
<path d="M341.73 73.15C343.243 74.9367 344 77.4167 344 80.59C344.147 83.3826 343.335 86.1416 341.7 88.41C340.875 89.3957 339.83 90.173 338.648 90.6786C337.467 91.1842 336.182 91.404 334.9 91.32C333.629 91.403 332.356 91.1948 331.177 90.7114C329.999 90.2279 328.946 89.4818 328.1 88.53C326.455 86.3757 325.629 83.7069 325.77 81C325.623 78.2492 326.448 75.5341 328.1 73.33C329.647 71.4433 331.92 70.5 334.92 70.5C337.92 70.5 340.19 71.3833 341.73 73.15ZM337.45 86.75C337.867 84.7782 338.055 82.7649 338.01 80.75C338.051 78.8125 337.849 76.8775 337.41 74.99C337.01 73.47 336.17 72.71 334.92 72.71C333.67 72.71 332.83 73.48 332.42 75.01C331.982 76.891 331.781 78.8192 331.82 80.75C331.775 82.7649 331.963 84.7782 332.38 86.75C332.76 88.29 333.61 89.05 334.92 89.05C336.23 89.05 337.07 88.29 337.45 86.75Z" fill="white"/>
<path d="M50.57 93C50.378 92.9988 50.1892 92.9507 50.02 92.86L7.61002 70.44C7.34467 70.3045 7.14161 70.0721 7.04294 69.791C6.94427 69.5099 6.95755 69.2016 7.08002 68.93L25.48 26.76C25.5481 26.612 25.6451 26.4791 25.7653 26.3692C25.8855 26.2593 26.0265 26.1745 26.18 26.12C26.3331 26.0664 26.4956 26.045 26.6573 26.0571C26.819 26.0691 26.9766 26.1144 27.12 26.19L69.53 48.59C69.7903 48.7308 69.9888 48.9634 70.0868 49.2426C70.1847 49.5218 70.1752 49.8275 70.06 50.1L51.65 92.27C51.5851 92.4183 51.4903 92.5517 51.3716 92.6618C51.2529 92.7719 51.1128 92.8564 50.96 92.91C50.8374 92.966 50.7048 92.9966 50.57 93ZM9.68002 68.87L50 90.16L67.46 50.16L27.14 28.87L9.68002 68.87Z" fill="white" stroke="white" stroke-miterlimit="10"/>
<path d="M69 50.81C68.7355 50.8091 68.479 50.7201 68.2707 50.5571C68.0625 50.3941 67.9144 50.1665 67.85 49.91C67.8128 49.7596 67.8059 49.6033 67.8296 49.4502C67.8534 49.2971 67.9073 49.1502 67.9882 49.0181C68.0691 48.886 68.1755 48.7713 68.3011 48.6807C68.4267 48.59 68.5691 48.5252 68.72 48.49L90.15 43.21L50.75 22.41L26.75 28.32C26.4465 28.3928 26.1265 28.3435 25.859 28.1826C25.5915 28.0218 25.3979 27.7622 25.32 27.46C25.2779 27.3083 25.2666 27.1497 25.2867 26.9936C25.3069 26.8374 25.3581 26.6869 25.4373 26.5508C25.5165 26.4148 25.6221 26.296 25.748 26.2014C25.8738 26.1068 26.0173 26.0383 26.17 26L50.62 20C50.9006 19.9311 51.197 19.9703 51.45 20.11L94 42.57C94.2129 42.6808 94.3866 42.8544 94.4975 43.0673C94.6084 43.2801 94.6512 43.522 94.62 43.76C94.5904 43.9972 94.4894 44.2198 94.3305 44.3984C94.1716 44.577 93.9622 44.7031 93.73 44.76L69.29 50.76C69.1967 50.7924 69.0987 50.8093 69 50.81Z" fill="white" stroke="white" stroke-miterlimit="10"/>
<path d="M50.57 93C50.3138 92.9988 50.065 92.9142 49.8612 92.759C49.6573 92.6039 49.5095 92.3866 49.44 92.14C49.3974 91.9916 49.3845 91.8363 49.4022 91.6829C49.4199 91.5295 49.4678 91.3811 49.5431 91.2463C49.6184 91.1116 49.7196 90.993 49.841 90.8975C49.9623 90.802 50.1013 90.7315 50.25 90.69L70.25 85.05L92.41 43.05C92.5583 42.7766 92.8085 42.5728 93.1063 42.4829C93.404 42.393 93.7252 42.4243 94 42.57C94.1372 42.6416 94.2588 42.7397 94.3579 42.8586C94.4569 42.9775 94.5313 43.1149 94.5769 43.2627C94.6225 43.4106 94.6383 43.5661 94.6233 43.7201C94.6084 43.8741 94.5631 44.0236 94.49 44.16L72.07 86.58C71.9936 86.7209 71.8896 86.8448 71.7642 86.9445C71.6387 87.0441 71.4945 87.1175 71.34 87.16L50.89 92.93C50.7873 92.9688 50.6795 92.9923 50.57 93Z" fill="white" stroke="white" stroke-miterlimit="10"/>
<path d="M51.6553 32.3856C52.3046 31.1546 51.833 29.6303 50.602 28.981C49.371 28.3317 47.8467 28.8032 47.1974 30.0342C46.5481 31.2653 47.0197 32.7896 48.2507 33.4389C49.4817 34.0882 51.006 33.6166 51.6553 32.3856Z" fill="white" stroke="white" stroke-miterlimit="10"/>
<path d="M49.43 34.91H49.37C48.3904 34.8916 47.4581 34.4854 46.7776 33.7805C46.0971 33.0756 45.7239 32.1296 45.74 31.15C45.7478 30.6654 45.851 30.1871 46.0437 29.7424C46.2364 29.2977 46.5148 28.8953 46.8631 28.5582C47.2113 28.2211 47.6225 27.9559 48.0733 27.7778C48.524 27.5997 49.0054 27.5121 49.49 27.52C50.4367 27.5764 51.3257 27.9941 51.9733 28.6871C52.6209 29.38 52.9776 30.2951 52.9699 31.2435C52.9622 32.1919 52.5907 33.1011 51.9319 33.7834C51.2731 34.4657 50.3775 34.869 49.43 34.91ZM49.43 32.55C49.7803 32.5501 50.1166 32.413 50.3671 32.1682C50.6175 31.9233 50.7622 31.5902 50.77 31.24C50.777 31.0563 50.7469 30.8732 50.6816 30.7014C50.6164 30.5296 50.5172 30.3727 50.39 30.24C50.2677 30.1142 50.1217 30.0141 49.9603 29.9454C49.7989 29.8767 49.6254 29.8409 49.45 29.84C49.2666 29.8268 49.0825 29.853 48.91 29.9168C48.7375 29.9807 48.5807 30.0806 48.45 30.21C48.2605 30.3945 48.1298 30.6309 48.0744 30.8895C48.019 31.1481 48.0413 31.4173 48.1386 31.6632C48.2359 31.9091 48.4038 32.1208 48.6212 32.2714C48.8385 32.4221 49.0956 32.5051 49.36 32.51L49.43 32.55Z" fill="white" stroke="white" stroke-miterlimit="10"/>
<path d="M70 70.34C69.5013 70.332 69.0161 70.1761 68.606 69.8922C68.1959 69.6083 67.8793 69.209 67.6963 68.745C67.5132 68.281 67.472 67.7731 67.5778 67.2857C67.6837 66.7982 67.9318 66.3532 68.2907 66.0068C68.6497 65.6605 69.1034 65.4285 69.5943 65.3401C70.0852 65.2518 70.5913 65.3112 71.0484 65.5107C71.5056 65.7102 71.8933 66.0409 72.1623 66.4609C72.4314 66.8809 72.5698 67.3713 72.56 67.87C72.5548 68.2005 72.4844 68.5267 72.3528 68.8299C72.2212 69.1331 72.031 69.4073 71.7931 69.6368C71.5552 69.8663 71.2744 70.0466 70.9667 70.1672C70.659 70.2879 70.3305 70.3466 70 70.34Z" fill="white" stroke="white" stroke-miterlimit="10"/>
<path d="M70 71.52H69.94C69.4536 71.5118 68.9736 71.4078 68.5275 71.2139C68.0813 71.02 67.6778 70.74 67.34 70.39C66.6642 69.6836 66.2946 68.739 66.3114 67.7615C66.3283 66.784 66.7303 65.8527 67.43 65.17C67.9547 64.6604 68.619 64.3183 69.3385 64.1871C70.0581 64.0558 70.8004 64.1414 71.4712 64.4328C72.142 64.7243 72.7111 65.2086 73.1062 65.8241C73.5012 66.4397 73.7044 67.1587 73.69 67.89C73.6868 68.3748 73.586 68.854 73.3935 69.299C73.2011 69.744 72.921 70.1456 72.57 70.48C71.8817 71.1485 70.9595 71.5216 70 71.52ZM70 66.52C69.8275 66.5185 69.6565 66.5513 69.4968 66.6165C69.3371 66.6818 69.1921 66.7781 69.07 66.9C68.9451 67.0237 68.846 67.1709 68.7784 67.3331C68.7107 67.4953 68.6759 67.6693 68.6759 67.845C68.6759 68.0207 68.7107 68.1947 68.7784 68.357C68.846 68.5192 68.9451 68.6663 69.07 68.79C69.1922 68.9158 69.3383 69.0159 69.4997 69.0846C69.6611 69.1533 69.8346 69.1891 70.01 69.19C70.1938 69.2081 70.3793 69.1841 70.5526 69.12C70.7258 69.0559 70.8822 68.9533 71.01 68.82C71.1995 68.6355 71.3302 68.3991 71.3856 68.1405C71.441 67.8819 71.4187 67.6127 71.3214 67.3668C71.2241 67.1209 71.0562 66.9092 70.8388 66.7586C70.6215 66.6079 70.3644 66.5249 70.1 66.52H70Z" fill="white" stroke="white" stroke-miterlimit="10"/>
<path d="M63.1 82.33C62.6013 82.322 62.1161 82.1662 61.706 81.8822C61.2959 81.5983 60.9793 81.199 60.7963 80.735C60.6132 80.271 60.572 79.7631 60.6779 79.2757C60.7837 78.7883 61.0318 78.3432 61.3907 77.9968C61.7497 77.6505 62.2034 77.4185 62.6943 77.3302C63.1852 77.2418 63.6913 77.3012 64.1484 77.5007C64.6056 77.7002 64.9933 78.0309 65.2624 78.4509C65.5314 78.8709 65.6698 79.3613 65.66 79.86C65.6469 80.5266 65.3701 81.1609 64.8902 81.6238C64.4104 82.0868 63.7667 82.3407 63.1 82.33Z" fill="white" stroke="white" stroke-miterlimit="10"/>
<path d="M63.15 83.51H63.08C62.2207 83.488 61.3958 83.1684 60.7461 82.6056C60.0963 82.0429 59.6622 81.2721 59.5177 80.4248C59.3732 79.5775 59.5274 78.7063 59.954 77.9601C60.3805 77.2139 61.053 76.6389 61.8564 76.3334C62.6598 76.028 63.5443 76.0109 64.3589 76.2852C65.1735 76.5595 65.8676 77.1082 66.3225 77.8374C66.7775 78.5666 66.9652 79.4312 66.8534 80.2834C66.7417 81.1357 66.3375 81.9227 65.71 82.51C65.019 83.1632 64.1008 83.5219 63.15 83.51ZM63.15 81.15C63.3251 81.1555 63.4995 81.1256 63.6628 81.062C63.826 80.9984 63.9747 80.9025 64.1 80.78C64.228 80.6589 64.3303 80.5133 64.4008 80.3518C64.4712 80.1903 64.5084 80.0162 64.51 79.84C64.5159 79.5746 64.4429 79.3135 64.3002 79.0897C64.1574 78.8659 63.9515 78.6895 63.7084 78.5829C63.4653 78.4763 63.196 78.4444 62.9347 78.491C62.6734 78.5377 62.4319 78.6609 62.2407 78.8451C62.0495 79.0292 61.9174 79.266 61.8609 79.5253C61.8045 79.7847 61.8264 80.055 61.9238 80.3019C62.0212 80.5488 62.1897 80.7612 62.4081 80.9122C62.6264 81.0632 62.8846 81.146 63.15 81.15Z" fill="white" stroke="white" stroke-miterlimit="10"/>
<path d="M77 58.9C76.5013 58.892 76.0161 58.7361 75.606 58.4522C75.1959 58.1683 74.8793 57.769 74.6963 57.305C74.5132 56.841 74.472 56.3331 74.5778 55.8457C74.6837 55.3582 74.9318 54.9132 75.2907 54.5668C75.6497 54.2205 76.1034 53.9885 76.5943 53.9001C77.0852 53.8118 77.5913 53.8712 78.0484 54.0707C78.5056 54.2702 78.8933 54.6009 79.1623 55.0209C79.4314 55.4409 79.5698 55.9313 79.56 56.43C79.5548 56.7605 79.4844 57.0867 79.3528 57.3899C79.2212 57.6931 79.031 57.9673 78.7931 58.1968C78.5552 58.4263 78.2744 58.6066 77.9667 58.7272C77.659 58.8479 77.3305 58.9066 77 58.9Z" fill="white" stroke="white" stroke-miterlimit="10"/>
<path d="M77 60.08C76.0521 60.0169 75.1649 59.5916 74.522 58.8922C73.8791 58.1928 73.5298 57.2729 73.5465 56.3231C73.5632 55.3733 73.9446 54.4663 74.6117 53.7899C75.2788 53.1136 76.1805 52.7198 77.13 52.69C78.0779 52.7531 78.9652 53.1785 79.608 53.8778C80.2509 54.5772 80.6002 55.4971 80.5835 56.4469C80.5668 57.3967 80.1854 58.3037 79.5183 58.9801C78.8512 59.6564 77.9495 60.0502 77 60.08ZM77 57.72C77.1755 57.7292 77.351 57.7009 77.5148 57.6372C77.6786 57.5734 77.8269 57.4755 77.95 57.35C78.079 57.2297 78.1819 57.0842 78.2524 56.9225C78.323 56.7608 78.3596 56.5864 78.36 56.41C78.3644 56.235 78.334 56.0609 78.2704 55.8978C78.2069 55.7347 78.1116 55.5859 77.99 55.46C77.8683 55.3329 77.7225 55.2311 77.5611 55.1608C77.3998 55.0904 77.226 55.0527 77.05 55.05C76.6978 55.0498 76.3593 55.1862 76.1056 55.4305C75.8519 55.6748 75.703 56.008 75.69 56.36C75.6847 56.7137 75.8194 57.0552 76.0648 57.31C76.3102 57.5647 76.6464 57.7121 77 57.72Z" fill="white" stroke="white" stroke-miterlimit="10"/>
<path d="M73.45 43.59C72.9508 43.5839 72.4647 43.4298 72.0532 43.147C71.6418 42.8643 71.3236 42.4657 71.139 42.0018C70.9545 41.5379 70.9119 41.0297 71.0166 40.5416C71.1213 40.0535 71.3686 39.6074 71.7272 39.2601C72.0858 38.9128 72.5395 38.6798 73.0307 38.5906C73.5219 38.5015 74.0285 38.5603 74.4863 38.7596C74.944 38.9588 75.3323 39.2896 75.6018 39.7098C75.8713 40.13 76.0099 40.6209 76 41.12C75.9948 41.4496 75.9247 41.775 75.7937 42.0775C75.6628 42.3801 75.4735 42.6538 75.2367 42.8832C74.9999 43.1126 74.7202 43.293 74.4136 43.4143C74.1071 43.5356 73.7796 43.5953 73.45 43.59Z" fill="white" stroke="white" stroke-miterlimit="10"/>
<path d="M73.5 44.77H73.43C72.7008 44.7561 71.9921 44.5264 71.3934 44.1099C70.7946 43.6934 70.3327 43.1088 70.066 42.43C69.7993 41.7512 69.7398 41.0085 69.8949 40.2959C70.05 39.5832 70.4128 38.9325 70.9376 38.426C71.4623 37.9194 72.1253 37.5797 72.843 37.4497C73.5607 37.3198 74.3007 37.4054 74.9698 37.6958C75.6388 37.9862 76.2068 38.4684 76.6019 39.0814C76.9971 39.6944 77.2017 40.4108 77.19 41.14C77.1717 42.1074 76.7752 43.0291 76.0854 43.7077C75.3957 44.3862 74.4676 44.7676 73.5 44.77ZM73.5 42.41C73.6837 42.4266 73.8688 42.402 74.0418 42.338C74.2148 42.274 74.3713 42.1722 74.5 42.04C74.629 41.9197 74.7319 41.7742 74.8024 41.6125C74.873 41.4508 74.9096 41.2764 74.91 41.1C74.9213 40.9168 74.8942 40.7332 74.8305 40.561C74.7668 40.3888 74.6678 40.2318 74.54 40.1C74.3562 39.911 74.1206 39.7805 73.8629 39.7247C73.6052 39.669 73.3368 39.6905 73.0913 39.7866C72.8457 39.8827 72.634 40.049 72.4826 40.2649C72.3312 40.4807 72.2468 40.7364 72.24 41C72.236 41.1755 72.2668 41.3501 72.3306 41.5136C72.3944 41.6771 72.49 41.8264 72.6118 41.9528C72.7336 42.0793 72.8792 42.1803 73.0402 42.2502C73.2012 42.3201 73.3745 42.3574 73.55 42.36L73.5 42.41Z" fill="white" stroke="white" stroke-miterlimit="10"/>
<path d="M51.52 58.57C51.0217 58.562 50.5369 58.4065 50.127 58.123C49.7171 57.8396 49.4004 57.4409 49.217 56.9775C49.0337 56.5141 48.9918 56.0067 49.0968 55.5195C49.2018 55.0323 49.4489 54.5871 49.8069 54.2404C50.1648 53.8936 50.6176 53.6608 51.1079 53.5713C51.5982 53.4818 52.104 53.5397 52.5613 53.7377C53.0187 53.9357 53.4071 54.2648 53.6774 54.6835C53.9477 55.1022 54.0878 55.5917 54.08 56.09C54.0761 56.4213 54.0066 56.7486 53.8756 57.053C53.7446 57.3573 53.5546 57.6327 53.3166 57.8633C53.0786 58.0939 52.7973 58.275 52.4889 58.3963C52.1806 58.5176 51.8513 58.5766 51.52 58.57Z" fill="white" stroke="white" stroke-miterlimit="10"/>
<path d="M51.57 59.74H51.5C51.0154 59.7315 50.5373 59.6276 50.0929 59.4343C49.6484 59.2409 49.2464 58.962 48.9098 58.6133C48.23 57.9091 47.8578 56.9637 47.875 55.985C47.8923 55.0064 48.2976 54.0746 49.0018 53.3948C49.706 52.715 50.6514 52.3428 51.63 52.36C52.1145 52.3655 52.593 52.4673 53.0376 52.6596C53.4823 52.8519 53.8842 53.1308 54.22 53.48C54.5586 53.8288 54.8249 54.241 55.0037 54.6929C55.1824 55.1449 55.2702 55.6277 55.2618 56.1137C55.2535 56.5997 55.1492 57.0792 54.9549 57.5248C54.7607 57.9703 54.4804 58.3731 54.13 58.71C53.4444 59.3751 52.5253 59.7449 51.57 59.74ZM51.57 54.74C51.2229 54.7433 50.8902 54.8793 50.64 55.12C50.4505 55.3045 50.3198 55.5409 50.2644 55.7995C50.209 56.0581 50.2314 56.3273 50.3287 56.5732C50.426 56.8191 50.5938 57.0308 50.8112 57.1815C51.0285 57.3321 51.2856 57.4151 51.55 57.42C51.7341 57.4306 51.9183 57.4022 52.0906 57.3367C52.2629 57.2713 52.4195 57.1701 52.55 57.04C52.6772 56.9183 52.7789 56.7725 52.8493 56.6111C52.9196 56.4498 52.9573 56.276 52.96 56.1C52.964 55.9245 52.9332 55.75 52.8694 55.5864C52.8056 55.4229 52.71 55.2736 52.5883 55.1472C52.4665 55.0208 52.3209 54.9197 52.1598 54.8498C51.9988 54.7799 51.8255 54.7426 51.65 54.74H51.57Z" fill="white" stroke="white" stroke-miterlimit="10"/>
<path d="M41.14 53.09C40.6417 53.082 40.1569 52.9265 39.747 52.643C39.3371 52.3595 39.0205 51.9609 38.8371 51.4975C38.6537 51.034 38.6119 50.5267 38.7169 50.0395C38.8219 49.5523 39.069 49.1071 39.4269 48.7604C39.7849 48.4136 40.2376 48.1807 40.7279 48.0913C41.2182 48.0018 41.724 48.0597 42.1814 48.2577C42.6388 48.4557 43.0272 48.7848 43.2975 49.2035C43.5678 49.6222 43.7079 50.1117 43.7 50.61C43.6948 50.9409 43.6245 51.2676 43.493 51.5714C43.3615 51.8751 43.1715 52.15 42.9337 52.3803C42.696 52.6106 42.4153 52.7918 42.1075 52.9136C41.7997 53.0353 41.471 53.0953 41.14 53.09Z" fill="white" stroke="white" stroke-miterlimit="10"/>
<path d="M41.19 54.26H41.12C40.6354 54.2515 40.1573 54.1476 39.7129 53.9542C39.2684 53.7609 38.8664 53.4819 38.5298 53.1333C38.1932 52.7846 37.9286 52.373 37.751 51.922C37.5735 51.4711 37.4865 50.9896 37.495 50.505C37.5036 50.0204 37.6075 49.5423 37.8008 49.0978C37.9941 48.6534 38.2731 48.2514 38.6218 47.9148C38.9704 47.5782 39.382 47.3136 39.833 47.136C40.2839 46.9585 40.7654 46.8715 41.25 46.88C41.7348 46.8832 42.214 46.984 42.659 47.1765C43.104 47.3689 43.5056 47.649 43.84 48C44.1724 48.3504 44.432 48.7633 44.6036 49.2148C44.7753 49.6662 44.8556 50.1473 44.84 50.63C44.8244 51.5913 44.4343 52.5086 43.7525 53.1866C43.0708 53.8646 42.1514 54.2497 41.19 54.26ZM41.19 51.91C41.5402 51.9074 41.8755 51.7678 42.1241 51.5211C42.3727 51.2744 42.5148 50.9402 42.52 50.59C42.5319 50.4067 42.5051 50.2229 42.4414 50.0506C42.3776 49.8784 42.2784 49.7214 42.15 49.59C41.901 49.3377 41.5644 49.1908 41.21 49.18C41.026 49.17 40.842 49.1987 40.6698 49.2642C40.4976 49.3296 40.341 49.4304 40.21 49.56C40.021 49.7439 39.8905 49.9794 39.8347 50.2371C39.779 50.4948 39.8005 50.7632 39.8966 51.0087C39.9927 51.2543 40.159 51.466 40.3749 51.6174C40.5907 51.7688 40.8464 51.8532 41.11 51.86L41.19 51.91Z" fill="white" stroke="white" stroke-miterlimit="10"/>
<path d="M30.77 47.61C30.2712 47.604 29.7855 47.4501 29.3742 47.1678C28.963 46.8855 28.6447 46.4876 28.4598 46.0243C28.275 45.561 28.2317 45.0533 28.3356 44.5654C28.4395 44.0775 28.6858 43.6314 29.0434 43.2837C29.401 42.9359 29.8537 42.7021 30.3443 42.6118C30.8349 42.5215 31.3412 42.5789 31.7992 42.7766C32.2571 42.9743 32.6461 43.3035 32.9169 43.7224C33.1876 44.1414 33.3279 44.6313 33.32 45.13C33.3161 45.4605 33.247 45.7869 33.1166 46.0906C32.9862 46.3943 32.7971 46.6693 32.5602 46.8997C32.3232 47.1301 32.0431 47.3115 31.7359 47.4334C31.4287 47.5553 31.1005 47.6153 30.77 47.61Z" fill="white" stroke="white" stroke-miterlimit="10"/>
<path d="M30.81 48.78H30.75C30.0203 48.7659 29.311 48.5363 28.7114 48.1201C28.1119 47.7038 27.6488 47.1196 27.3805 46.4408C27.1122 45.762 27.0507 45.0191 27.2036 44.3054C27.3565 43.5917 27.7171 42.9392 28.24 42.43C28.9553 41.7706 29.8973 41.4125 30.87 41.43C31.5998 41.4441 32.309 41.6737 32.9086 42.0899C33.5082 42.5062 33.9712 43.0904 34.2395 43.7692C34.5078 44.448 34.5694 45.1909 34.4164 45.9046C34.2635 46.6183 33.9029 47.2708 33.38 47.78C32.6848 48.4329 31.7637 48.7913 30.81 48.78ZM30.81 46.43C30.9858 46.4336 31.1604 46.4019 31.3237 46.3366C31.4869 46.2713 31.6353 46.1738 31.76 46.05C31.8872 45.9282 31.9889 45.7825 32.0593 45.6211C32.1296 45.4597 32.1673 45.286 32.17 45.11C32.1727 44.7554 32.0358 44.4139 31.7888 44.1594C31.5418 43.9049 31.2046 43.7579 30.85 43.75C30.4954 43.7473 30.1539 43.8842 29.8994 44.1312C29.645 44.3782 29.4979 44.7154 29.49 45.07C29.4825 45.2537 29.5123 45.437 29.5776 45.6089C29.6429 45.7808 29.7424 45.9377 29.87 46.07C29.9918 46.1971 30.1376 46.2989 30.2989 46.3692C30.4603 46.4396 30.634 46.4773 30.81 46.48V46.43Z" fill="white" stroke="white" stroke-miterlimit="10"/>
<path d="M42.48 75.69C41.9795 75.6899 41.4903 75.5408 41.0749 75.2616C40.6595 74.9824 40.3366 74.5858 40.1474 74.1225C39.9583 73.6591 39.9114 73.1498 40.0127 72.6597C40.1141 72.1695 40.3591 71.7207 40.7165 71.3703C41.074 71.02 41.5277 70.784 42.0198 70.6925C42.5118 70.601 43.02 70.6581 43.4795 70.8565C43.939 71.0549 44.329 71.3857 44.5998 71.8066C44.8706 72.2275 45.0099 72.7196 45 73.22C44.9869 73.8796 44.7157 74.5078 44.2445 74.9697C43.7733 75.4315 43.1398 75.6901 42.48 75.69Z" fill="white" stroke="white" stroke-miterlimit="10"/>
<path d="M42.52 76.87H42.46C41.9746 76.8622 41.4954 76.7587 41.0501 76.5653C40.6047 76.372 40.2018 76.0927 39.8646 75.7434C39.5274 75.3941 39.2624 74.9817 39.0849 74.5298C38.9074 74.0779 38.8207 73.5954 38.83 73.11C38.8419 72.622 38.9516 72.1413 39.1526 71.6965C39.3535 71.2516 39.6417 70.8515 40 70.52C40.7148 69.8598 41.6572 69.5014 42.63 69.52C43.5768 69.5764 44.4657 69.9942 45.1133 70.6871C45.7609 71.38 46.1177 72.2951 46.11 73.2435C46.1023 74.1919 45.7307 75.1011 45.0719 75.7834C44.4132 76.4657 43.5175 76.869 42.57 76.91L42.52 76.87ZM42.52 74.51C42.8541 74.4811 43.1653 74.3279 43.3919 74.0807C43.6186 73.8336 43.7444 73.5104 43.7444 73.175C43.7444 72.8396 43.6186 72.5165 43.3919 72.2693C43.1653 72.0221 42.8541 71.8689 42.52 71.84C42.3442 71.8358 42.1694 71.8673 42.0061 71.9326C41.8428 71.9979 41.6944 72.0957 41.57 72.22C41.4432 72.3399 41.3416 72.4839 41.2712 72.6436C41.2007 72.8033 41.163 72.9755 41.16 73.15C41.153 73.3337 41.1831 73.5168 41.2484 73.6886C41.3137 73.8604 41.4128 74.0173 41.54 74.15C41.6623 74.2758 41.8084 74.3759 41.9698 74.4446C42.1311 74.5133 42.3046 74.5491 42.48 74.55L42.52 74.51Z" fill="white" stroke="white" stroke-miterlimit="10"/>
<path d="M32.1 70.21C31.6013 70.202 31.1161 70.0461 30.706 69.7622C30.2959 69.4783 29.9793 69.079 29.7963 68.615C29.6132 68.151 29.572 67.6431 29.6779 67.1557C29.7837 66.6682 30.0318 66.2232 30.3907 65.8768C30.7497 65.5305 31.2034 65.2985 31.6943 65.2101C32.1852 65.1218 32.6913 65.1812 33.1484 65.3807C33.6056 65.5802 33.9933 65.9109 34.2624 66.3309C34.5314 66.7509 34.6698 67.2413 34.66 67.74C34.6548 68.0705 34.5844 68.3967 34.4528 68.6999C34.3212 69.0031 34.131 69.2773 33.8931 69.5068C33.6552 69.7363 33.3744 69.9166 33.0667 70.0372C32.759 70.1579 32.4305 70.2166 32.1 70.21Z" fill="white" stroke="white" stroke-miterlimit="10"/>
<path d="M32.15 71.39H32.08C31.3404 71.387 30.6187 71.1617 30.0086 70.7434C29.3986 70.3252 28.9283 69.7333 28.6588 69.0445C28.3893 68.3556 28.333 67.6017 28.4973 66.8805C28.6616 66.1593 29.0388 65.5041 29.58 65C30.1047 64.4904 30.769 64.1483 31.4886 64.0171C32.2081 63.8858 32.9504 63.9714 33.6212 64.2628C34.2921 64.5543 34.8611 65.0386 35.2562 65.6541C35.6512 66.2697 35.8544 66.9887 35.84 67.72C35.8217 68.6874 35.4252 69.6091 34.7354 70.2877C34.0457 70.9662 33.1176 71.3475 32.15 71.35V71.39ZM32.15 66.39C31.8007 66.3899 31.4654 66.5273 31.2166 66.7724C30.9677 67.0176 30.8253 67.3507 30.82 67.7C30.8252 68.0432 30.9638 68.3708 31.2065 68.6135C31.4492 68.8562 31.7768 68.9948 32.12 69C32.3036 69.0152 32.4883 68.9899 32.6611 68.926C32.8339 68.8621 32.9905 68.761 33.12 68.63C33.309 68.4461 33.4395 68.2106 33.4953 67.9529C33.551 67.6952 33.5295 67.4268 33.4335 67.1812C33.3374 66.9357 33.171 66.724 32.9552 66.5726C32.7393 66.4211 32.4836 66.3368 32.22 66.33L32.15 66.39Z" fill="white" stroke="white" stroke-miterlimit="10"/>
<path d="M21.72 64.73C21.2213 64.722 20.7361 64.5662 20.326 64.2822C19.9159 63.9983 19.5993 63.599 19.4163 63.135C19.2332 62.671 19.192 62.1631 19.2978 61.6757C19.4037 61.1883 19.6518 60.7432 20.0107 60.3968C20.3697 60.0505 20.8234 59.8185 21.3143 59.7302C21.8052 59.6418 22.3113 59.7012 22.7684 59.9007C23.2256 60.1002 23.6133 60.4309 23.8824 60.8509C24.1514 61.2709 24.2898 61.7613 24.28 62.26C24.2748 62.5905 24.2044 62.9167 24.0728 63.2199C23.9412 63.5231 23.751 63.7973 23.5131 64.0268C23.2752 64.2563 22.9944 64.4366 22.6867 64.5573C22.379 64.6779 22.0505 64.7366 21.72 64.73Z" fill="white" stroke="white" stroke-miterlimit="10"/>
<path d="M21.77 65.91H21.7C20.7522 65.8468 19.8649 65.4215 19.222 64.7222C18.5791 64.0228 18.2298 63.1029 18.2465 62.1531C18.2633 61.2033 18.6447 60.2963 19.3118 59.6199C19.9788 58.9436 20.8805 58.5498 21.83 58.52C22.7768 58.5764 23.6657 58.9941 24.3133 59.687C24.9609 60.38 25.3177 61.2951 25.31 62.2435C25.3023 63.1919 24.9307 64.1011 24.2719 64.7834C23.6132 65.4657 22.7176 65.869 21.77 65.91ZM21.77 60.91C21.4198 60.9099 21.0834 61.047 20.833 61.2918C20.5825 61.5366 20.4379 61.8698 20.43 62.22C20.4212 62.403 20.4494 62.5859 20.5129 62.7578C20.5765 62.9296 20.6742 63.0868 20.8 63.22C21.0483 63.4722 21.3862 63.616 21.74 63.62C21.924 63.6403 22.1102 63.6175 22.2838 63.5533C22.4574 63.489 22.6136 63.3852 22.74 63.25C22.9898 62.9989 23.13 62.6591 23.13 62.305C23.13 61.9508 22.9898 61.6111 22.74 61.36C22.6183 61.2328 22.4725 61.1311 22.3111 61.0607C22.1498 60.9904 21.9761 60.9527 21.8 60.95L21.77 60.91Z" fill="white" stroke="white" stroke-miterlimit="10"/>
</svg>
